<?xml version="1.0" encoding="utf-8"?>
<!-- Generator: Adobe Illustrator 15.1.0, SVG Export Plug-In . SVG Version: 6.00 Build 0)  -->
<!DOCTYPE svg PUBLIC "-//W3C//DTD SVG 1.1//EN" "http://www.w3.org/Graphics/SVG/1.1/DTD/svg11.dtd">
<svg version="1.1" id="Laag_1" xmlns="http://www.w3.org/2000/svg" xmlns:xlink="http://www.w3.org/1999/xlink" x="0px" y="0px"
	 width="91.962px" height="108.1px" viewBox="0 0 91.962 108.1" enable-background="new 0 0 91.962 108.1" xml:space="preserve">
<g>
	<g>
		<path fill-rule="evenodd" clip-rule="evenodd" fill="#349F52" d="M34.064,42.943v25.419c-0.992,0.118-1.666,0.214-1.803,0.269
			c-0.703,0.281-15.594,1.896-15.594,1.896l-0.702-17.7l2.739-2.247l10.185-6.462L34.064,42.943z"/>
		<path fill-rule="evenodd" clip-rule="evenodd" fill="#FFFFFF" d="M52.162,40.819v26.58l-4.589-0.383c0,0-9.442,0.862-13.51,1.347
			V42.943l10.91-2.478L52.162,40.819z"/>
		<path fill-rule="evenodd" clip-rule="evenodd" fill="#E7353A" d="M70.261,44.241v26.883c-0.661-0.335-1.757-1.088-1.757-1.088
			l-7.445-1.896l-8.896-0.742V40.819l5.666,0.279L70.261,44.241z"/>
		<path fill-rule="evenodd" clip-rule="evenodd" fill="#272F34" d="M80.93,76.282l-8.903-3.902c0.03,0.68,0.06,1.36,0.09,2.04
			c-0.007,0.039-0.013,0.078-0.02,0.117c0.268,2.835-3.44,2.604-3.403,0.298l0.115-3.294c-18.801-4.858-24.996-5.385-54.826,2.755
			l-0.652,0.149l0.02-0.669l0.619-21.517l0.148-0.349c16.133-16.318,35.774-13.705,56.02-8.964l0.001-0.002l0.309,0.021l0.477,4.208
			l0.002,0.021l1.032,23.589c2.18,1.173,5.984,4.186,9.131,4.475C82.044,75.351,81.878,76.63,80.93,76.282L80.93,76.282z
			 M70.109,43.093c-0.238,1.062-0.017,0.057-0.348,1.607c-0.035-0.003-0.072-0.007-0.107-0.01
			c-23.877-5.27-36.869-4.418-51.526,10.991c0.102,4.48,0.258,8.815,0.381,13.276c22.18-5.286,40.324-2.88,50.369,0.613
			l0.857-24.477l0.005-0.046L70.109,43.093z"/>
		<path fill-rule="evenodd" clip-rule="evenodd" fill="#272F34" d="M22.297,13.822l0.01-0.019c0-0.007-0.006-0.016-0.02-0.025
			l-0.136-0.099l0.107-0.13c1.888-2.285,4.445-4.823,7.068-6.982c2.374-1.956,4.806-3.601,6.85-4.471
			c2.129-0.906,4.289-1.515,6.43-1.832c2.184-0.325,4.351-0.347,6.443-0.08c4.266,0.546,8.227,2.305,11.428,5.19
			c2.985,2.691,5.312,6.362,6.606,10.942c4.377-1.312,8.473-1.051,11.626,0.419l0,0c1.372,0.64,2.567,1.51,3.528,2.579
			c0.963,1.069,1.693,2.34,2.136,3.778c0.873,2.837,0.629,6.332-1.149,10.252c3.935,0.06,6.403,1.248,7.677,3.054
			c0.831,1.177,1.151,2.614,1.038,4.168c-0.113,1.541-0.655,3.2-1.549,4.838c-2.573,4.716-8.086,9.278-14.722,10.354l-0.083-0.303
			c4.695-1.863,9.428-6.14,11.715-10.285c0.852-1.541,1.361-3.061,1.402-4.425c0.04-1.345-0.379-2.542-1.382-3.458
			c-1.288-1.176-3.539-1.903-7.015-1.914l-0.248,0l0.104-0.225c1.898-4.069,2.183-7.692,1.291-10.591
			c-0.425-1.38-1.117-2.599-2.029-3.623c-0.911-1.024-2.045-1.857-3.351-2.466v0c-2.993-1.397-6.897-1.621-11.144-0.315
			l-0.155,0.048l-0.043-0.157c-1.423-5.144-3.813-8.984-6.826-11.5c-2.061-1.721-4.413-2.824-6.947-3.303
			c-2.537-0.48-5.26-0.336-8.054,0.436C37.559,5.158,31.944,8.94,26.833,15.06l-0.446,0.532l-0.065,0.078l-0.097-0.026l-4.243-1.134
			l-0.19-0.051l0.09-0.175l0.097-0.187C22.074,13.911,22.254,13.863,22.297,13.822z"/>
		<path fill-rule="evenodd" clip-rule="evenodd" fill="#272F34" d="M17.254,45.865c-2.824,1.823-3.031,1.989-3.102,2.045
			c-0.021,0.016-0.033,0.026-0.071,0.051l-0.003,0.002l-0.285,0.172h-0.001c-0.369,0.222-1.15,0.691-2.665,1.611l-0.071,0.043
			l-0.076-0.035C3.829,46.46,0.137,39.44,0.004,32.64c-0.052-2.613,0.423-5.195,1.427-7.521c1.005-2.329,2.543-4.404,4.618-5.999
			c5.046-3.879,13.266-4.919,24.729,0.109l0.013,0.005c0.598,0.324,0.938,0.556,1.075,0.706v0c0.108,0.118,0.129,0.227,0.073,0.32
			c-0.048,0.081-0.145,0.122-0.282,0.124h-0.001c-0.228,0.003-0.657-0.087-1.198-0.25l-0.01-0.004
			c-9.686-3.675-17.075-2.837-21.525,0.248c-1.817,1.26-3.146,2.897-3.936,4.751c-0.791,1.854-1.047,3.931-0.723,6.072
			c0.779,5.139,4.898,10.65,12.972,14.387l0.261,0.121L17.254,45.865z"/>
	</g>
	<g>
		<path fill-rule="evenodd" clip-rule="evenodd" fill="#272F34" d="M43.253,92.925c-2.413,1.371-4.826,2.742-7.238,4.113
			c-1.65,0.846-3.301,1.691-4.95,2.538c-1.273,0.554-2.546,1.108-3.818,1.663c-1.012,0.535-2.024,1.071-3.037,1.607
			c-0.349,0.239-0.697,0.479-1.046,0.72c-0.225,0.234-0.448,0.469-0.673,0.703c-1.397,1.435,0.369,4.449,2.51,3.718
			c0,0,1.9-1.019,2.129-1.176c0.229-0.158,3.552-2.54,3.552-2.54s3.796-3.237,4.123-3.462c0.326-0.225,4.549-3.611,4.549-3.611
			s4.032-2.822,4.218-2.902c0.187-0.079,2.792-1.824,2.792-1.824c2.012-1.207,4.023-2.414,6.035-3.621c0,0,0.742-0.463,1.061-0.489
			c0.319-0.026,1.507-0.121,1.507-0.121c0.386,0.023,0.771,0.048,1.156,0.071c0,0,0.861,0.13,1.2-0.007
			c0.34-0.137,1.237-0.514,1.531-0.716s1.766-1.215,1.766-1.215c2.483-2.052,5.403-4.252,7.339-6.817
			c-0.821-0.021-6.343,4.73-7.778,5.563c-0.219,0.127-0.502,0.298-0.502,0.298s-0.15-0.014-0.249-0.157
			c-0.1-0.145-0.282-0.136-0.069-0.307c0.213-0.169,0.293-0.225,0.537-0.416c0.245-0.191,7.172-5.898,7.172-5.898
			c0.021-0.07,0.044-0.141,0.066-0.211c-0.088-0.025-0.177-0.052-0.265-0.077c-2.625,1.806-5.209,3.678-7.834,5.483
			c-0.096,0.066-0.244,0.191-0.357,0.199c-0.113,0.007-0.34-0.049-0.34-0.049c0.044-0.085,0.087-0.17,0.131-0.255
			c0.073-0.065,0.146-0.132,0.218-0.197c1.098-0.832,7.498-5.404,7.755-6.111c-0.066,0.006-0.133,0.013-0.199,0.019
			c-2.363,0.986-6.007,3.723-8.312,5.2c-0.106,0.026-0.214,0.054-0.321,0.08c-0.063-0.059-0.127-0.116-0.191-0.175
			c0,0,0.048-0.104,0.164-0.207c1.23-1.094,7.881-5.16,8.194-5.85c-1.68,0.196-6.16,2.998-7.689,3.948
			c-0.776,0.479-1.553,0.959-2.329,1.438c-0.188,0.128-0.373,0.257-0.56,0.385c-0.326,0.256-0.652,0.512-0.979,0.768
			c-0.148,0.149-0.297,0.299-0.445,0.447c-0.108,0.161-0.217,0.322-0.326,0.483c-0.103,0.228-0.205,0.455-0.308,0.683
			c-0.07,0.308-0.142,0.616-0.212,0.923c-0.111,0.272-0.222,0.545-0.333,0.817c0,0-0.099,0.233-0.264,0.37
			c-0.164,0.137-0.375,0.446-0.471,0.513c-0.097,0.065-0.889,0.729-0.889,0.729c-0.224,0.153-0.447,0.308-0.671,0.461
			c-2.091,1.329-4.183,2.658-6.273,3.987C43.77,92.603,43.511,92.764,43.253,92.925z"/>
		<path fill-rule="evenodd" clip-rule="evenodd" fill="#272F34" d="M40.179,88.167c-0.102-0.058-4.302-2.624-4.302-2.624
			c-1.064-0.589-2.129-1.177-3.193-1.765c-2.412-1.438-4.824-2.874-7.237-4.311c-0.997-0.528-1.995-1.057-2.992-1.585
			c-0.053,0.004-0.105,0.007-0.158,0.011c0,0-0.228,0.107-0.325,0.253c-0.1,0.145-0.116,0.085-0.241,0.366
			c-0.125,0.282-0.204,0.304-0.191,0.579s-0.024,0.221,0.049,0.597s0.119,0.503,0.241,0.672c0.123,0.17,0.408,0.615,0.544,0.759
			c0.137,0.145,1.23,1.563,1.23,1.563c0.609,0.623,1.219,1.245,1.829,1.868c0.578,0.51,1.156,1.02,1.734,1.529
			c0.511,0.422,1.021,0.844,1.532,1.266c0.444,0.312,0.889,0.623,1.333,0.935c0.302,0.187,0.604,0.374,0.907,0.561
			c0.312,0.159,0.624,0.318,0.937,0.478c0.357,0.129,0.715,0.258,1.072,0.387c0.642,0.188,1.284,0.377,1.926,0.565
			c0.609,0.108,1.218,0.217,1.827,0.325c0.47,0.147,0.939,0.295,1.409,0.442c0,0,0.142,0.046,0.271,0.085
			c0.128,0.039,0.68,0.249,0.68,0.249c0.926,0.409,1.851,0.818,2.776,1.229c0.995,0.532,1.99,1.065,2.985,1.598
			c0.641,0.389,1.282,0.778,1.923,1.167c1.566,0.915,3.133,1.831,4.7,2.747c1.173,0.822,2.345,1.646,3.518,2.468
			c0.509,0.375,1.018,0.751,1.526,1.127c1.708,1.19,3.416,2.382,5.123,3.572c0.423,0.271,0.845,0.543,1.268,0.814
			c0.294,0.171,0.588,0.343,0.883,0.514c0.114,0.064,0.229,0.129,0.343,0.193c3.167,1.189,5.551-2.931,2.8-5.09
			c-1.462-0.695-2.924-1.39-4.387-2.085c-1.797-0.795-3.594-1.589-5.392-2.384c-0.638-0.264-1.276-0.528-1.914-0.793
			c-1.637-0.732-3.273-1.464-4.911-2.196c-1.581-0.829-3.163-1.659-4.745-2.488c-0.864-0.498-1.729-0.996-2.593-1.494
			c0,0-1.612-1.36-1.817-1.442s-0.663-0.457-0.663-0.457C40.381,88.303,40.28,88.235,40.179,88.167z"/>
	</g>
</g>
</svg>
