<?xml version="1.0" encoding="utf-8"?>
<!-- Generator: Adobe Illustrator 15.1.0, SVG Export Plug-In . SVG Version: 6.00 Build 0)  -->
<!DOCTYPE svg PUBLIC "-//W3C//DTD SVG 1.1//EN" "http://www.w3.org/Graphics/SVG/1.1/DTD/svg11.dtd">
<svg version="1.1" id="Laag_1" xmlns="http://www.w3.org/2000/svg" xmlns:xlink="http://www.w3.org/1999/xlink" x="0px" y="0px"
	 width="97.423px" height="97.423px" viewBox="0 0 97.423 97.423" enable-background="new 0 0 97.423 97.423" xml:space="preserve">
<path fill="#E73438" d="M92.023,42.904c-1.502-1.246-1.986-3.676-1.075-5.403l2.592-4.908c0.911-1.726,0.132-3.607-1.734-4.184
	l-5.302-1.638c-1.864-0.576-3.242-2.636-3.061-4.579l0.516-5.528c0.182-1.942-1.258-3.384-3.201-3.201l-5.527,0.516
	c-1.942,0.183-4.004-1.195-4.58-3.06l-1.637-5.304c-0.576-1.865-2.459-2.646-4.185-1.734l-4.907,2.593
	c-1.726,0.912-4.158,0.429-5.402-1.074l-3.544-4.273c-1.245-1.501-3.283-1.501-4.53,0l-3.541,4.273
	c-1.246,1.503-3.678,1.986-5.402,1.074l-4.908-2.593C30.868,2.97,28.985,3.75,28.41,5.615l-1.638,5.304
	c-0.575,1.864-2.637,3.242-4.58,3.06l-5.528-0.516c-1.941-0.183-3.384,1.259-3.201,3.201l0.516,5.528
	c0.181,1.943-1.196,4.003-3.06,4.579l-5.303,1.638c-1.866,0.576-2.646,2.458-1.735,4.184l2.595,4.908
	c0.911,1.728,0.426,4.157-1.075,5.403l-4.272,3.543c-1.504,1.244-1.504,3.283,0,4.528L5.4,54.519c1.501,1.245,1.986,3.676,1.075,5.4
	l-2.595,4.91c-0.91,1.726-0.131,3.607,1.735,4.183l5.303,1.64c1.863,0.575,3.24,2.637,3.06,4.579l-0.516,5.527
	c-0.183,1.942,1.26,3.383,3.201,3.202l5.528-0.517c1.943-0.183,4.005,1.195,4.58,3.06l1.638,5.305
	c0.575,1.864,2.458,2.644,4.184,1.732l4.908-2.592c1.725-0.91,4.156-0.428,5.402,1.074l3.541,4.273c1.247,1.502,3.285,1.502,4.53,0
	l3.544-4.273c1.244-1.502,3.677-1.984,5.402-1.074l4.907,2.592c1.726,0.911,3.608,0.132,4.185-1.732l1.637-5.305
	c0.576-1.864,2.638-3.242,4.58-3.06l5.527,0.517c1.943,0.181,3.383-1.26,3.201-3.202l-0.516-5.527
	c-0.182-1.942,1.196-4.004,3.061-4.579l5.302-1.64c1.866-0.575,2.646-2.457,1.734-4.183l-2.592-4.91
	c-0.911-1.725-0.427-4.155,1.075-5.4l4.272-3.543c1.503-1.245,1.503-3.284,0-4.528L92.023,42.904z M23.475,48.746
	c-0.725,3.432-3.773,11.52-7.354,6.742c-2.82-3.767,1.081-14.129,2.697-17.42c4.685-9.528,25.188-32.688,36.949-18.826
	c1.702,2.003,3.214,8.562,1.002,10.739c-1.645,1.616-5.313,0.9-7.628,0.824c-0.194-0.006-0.384-0.009-0.561-0.004
	c0.729,2.279,1.229,3.34,2.479,5.432c1.907,3.189,4.293,7.184,6.458,10.34c-2.151,0.442-29.989,8.263-29.487,9.872
	C27.254,53.954,25.136,50.507,23.475,48.746z M46.989,80.796c-10.179,0.5-18.795-7.332-19.294-17.493
	c-0.074-1.526,0.06-3.014,0.339-4.452c10.157-4.505,20.701-7.377,31.809-8.727c2.718,3.042,4.453,6.99,4.668,11.365
	C65.012,71.649,57.18,80.292,46.989,80.796z M83.449,49.884c-1.074,3.103-0.71,3.326-1.137,6.566
	c-0.44,3.352,0.564,6.625,0.526,10.004c-1.812-0.023-5.222,1.025-6.829,0.029c-1.221-0.755-0.434-1.395-1.036-2.544
	c-0.913-1.746-3.49-1.138-5.054-1.886c-1.661-0.798-3.11-1.715-3.499-3.504c-0.221-1.022-1.72-3.21-1.368-3.953
	c0.081-0.172,0.175-0.306,0.274-0.423c-0.202-0.14-0.389-0.388-0.553-0.786c-0.672-1.635,2.028-2.877,3.263-3.845
	c0.035-0.027,0.068-0.055,0.101-0.081c2.327-1.933,4.163,2.271,5.842,1.222c0.796-0.498-1.51-5.473-1.94-6.441
	c-0.596-1.345-1.462-2.901-0.876-4.376c3.96,0.522,4.197,8.062,6.356,10.322c-0.441-1.365-0.954-12.52,0.902-12.293
	c3.352,0.406,0.313,10.677,2.291,12.141c1.326-2.308,1.653-5.509,3.648-7.45C86.756,43.435,83.959,48.415,83.449,49.884z"/>
</svg>
